<mxfile host="Electron" modified="2023-05-21T04:53:20.449Z" agent="Mozilla/5.0 (Macintosh; Intel Mac OS X 10_15_7) AppleWebKit/537.36 (KHTML, like Gecko) draw.io/21.2.1 Chrome/112.0.5615.87 Electron/24.1.2 Safari/537.36" etag="uvp5Tt2oljY6Ed4qm_Qr" version="21.2.1" type="device">
  <diagram name="第 1 页" id="HNJOkkNOQmQZ6VasGlP_">
    <mxGraphModel dx="1242" dy="907" grid="1" gridSize="10" guides="1" tooltips="1" connect="1" arrows="1" fold="1" page="1" pageScale="1" pageWidth="827" pageHeight="1169" math="0" shadow="0">
      <root>
        <mxCell id="0" />
        <mxCell id="1" parent="0" />
        <mxCell id="sW7oNko0xUZDrha6zsxx-1" value="&lt;font style=&quot;font-size: 15px;&quot;&gt;&lt;b&gt;Application&lt;/b&gt;&lt;/font&gt;" style="rounded=0;whiteSpace=wrap;html=1;" parent="1" vertex="1">
          <mxGeometry x="210" y="240" width="120" height="60" as="geometry" />
        </mxCell>
        <mxCell id="sW7oNko0xUZDrha6zsxx-2" value="&lt;font style=&quot;font-size: 15px;&quot;&gt;&lt;b&gt;Application&lt;/b&gt;&lt;/font&gt;" style="rounded=0;whiteSpace=wrap;html=1;" parent="1" vertex="1">
          <mxGeometry x="400" y="240" width="130" height="60" as="geometry" />
        </mxCell>
        <mxCell id="sW7oNko0xUZDrha6zsxx-3" value="&lt;font style=&quot;font-size: 20px;&quot;&gt;&lt;b&gt;VU mode&lt;/b&gt;&lt;/font&gt;" style="text;html=1;strokeColor=none;fillColor=none;align=center;verticalAlign=middle;whiteSpace=wrap;rounded=0;" parent="1" vertex="1">
          <mxGeometry x="100" y="255" width="90" height="30" as="geometry" />
        </mxCell>
        <mxCell id="sW7oNko0xUZDrha6zsxx-4" value="" style="endArrow=none;dashed=1;html=1;rounded=0;" parent="1" edge="1">
          <mxGeometry width="50" height="50" relative="1" as="geometry">
            <mxPoint x="80" y="320" as="sourcePoint" />
            <mxPoint x="600" y="320" as="targetPoint" />
          </mxGeometry>
        </mxCell>
        <mxCell id="sW7oNko0xUZDrha6zsxx-5" value="&lt;font style=&quot;font-size: 15px;&quot;&gt;&lt;b&gt;Guest OS&lt;/b&gt;&lt;/font&gt;" style="rounded=0;whiteSpace=wrap;html=1;" parent="1" vertex="1">
          <mxGeometry x="210" y="350" width="320" height="80" as="geometry" />
        </mxCell>
        <mxCell id="sW7oNko0xUZDrha6zsxx-6" value="&lt;font style=&quot;font-size: 20px;&quot;&gt;&lt;b&gt;VS mode&lt;/b&gt;&lt;/font&gt;" style="text;html=1;strokeColor=none;fillColor=none;align=center;verticalAlign=middle;whiteSpace=wrap;rounded=0;" parent="1" vertex="1">
          <mxGeometry x="100" y="375" width="90" height="30" as="geometry" />
        </mxCell>
        <mxCell id="sW7oNko0xUZDrha6zsxx-8" value="" style="endArrow=none;dashed=1;html=1;rounded=0;" parent="1" edge="1">
          <mxGeometry width="50" height="50" relative="1" as="geometry">
            <mxPoint x="80" y="460" as="sourcePoint" />
            <mxPoint x="600" y="460" as="targetPoint" />
          </mxGeometry>
        </mxCell>
        <mxCell id="sW7oNko0xUZDrha6zsxx-9" value="" style="rounded=0;whiteSpace=wrap;html=1;" parent="1" vertex="1">
          <mxGeometry x="210" y="480" width="320" height="110" as="geometry" />
        </mxCell>
        <mxCell id="sW7oNko0xUZDrha6zsxx-10" value="&lt;font style=&quot;font-size: 20px;&quot;&gt;&lt;b&gt;HS mode&lt;/b&gt;&lt;/font&gt;" style="text;html=1;strokeColor=none;fillColor=none;align=center;verticalAlign=middle;whiteSpace=wrap;rounded=0;" parent="1" vertex="1">
          <mxGeometry x="110" y="520" width="90" height="30" as="geometry" />
        </mxCell>
        <mxCell id="sW7oNko0xUZDrha6zsxx-11" value="" style="endArrow=none;dashed=1;html=1;rounded=0;" parent="1" edge="1">
          <mxGeometry width="50" height="50" relative="1" as="geometry">
            <mxPoint x="80" y="600" as="sourcePoint" />
            <mxPoint x="600" y="600" as="targetPoint" />
          </mxGeometry>
        </mxCell>
        <mxCell id="sW7oNko0xUZDrha6zsxx-12" value="&lt;font style=&quot;font-size: 15px;&quot;&gt;&lt;b&gt;RustSBI&lt;/b&gt;&lt;/font&gt;" style="rounded=0;whiteSpace=wrap;html=1;" parent="1" vertex="1">
          <mxGeometry x="210" y="640" width="320" height="90" as="geometry" />
        </mxCell>
        <mxCell id="sW7oNko0xUZDrha6zsxx-13" value="&lt;font style=&quot;font-size: 20px;&quot;&gt;&lt;b&gt;M Mode&lt;/b&gt;&lt;/font&gt;" style="text;html=1;strokeColor=none;fillColor=none;align=center;verticalAlign=middle;whiteSpace=wrap;rounded=0;" parent="1" vertex="1">
          <mxGeometry x="100" y="665" width="90" height="30" as="geometry" />
        </mxCell>
        <mxCell id="8lq25ZgbTpeLj6zq8VlV-1" value="" style="curved=1;endArrow=classic;html=1;rounded=0;entryX=1;entryY=0.5;entryDx=0;entryDy=0;dashed=1;" edge="1" parent="1" target="sW7oNko0xUZDrha6zsxx-9">
          <mxGeometry width="50" height="50" relative="1" as="geometry">
            <mxPoint x="530" y="690" as="sourcePoint" />
            <mxPoint x="580" y="640" as="targetPoint" />
            <Array as="points">
              <mxPoint x="580" y="690" />
              <mxPoint x="700" y="570" />
            </Array>
          </mxGeometry>
        </mxCell>
        <mxCell id="8lq25ZgbTpeLj6zq8VlV-2" value="&lt;font style=&quot;font-size: 16px;&quot;&gt;IRQ&lt;/font&gt;" style="text;html=1;strokeColor=none;fillColor=none;align=center;verticalAlign=middle;whiteSpace=wrap;rounded=0;" vertex="1" parent="1">
          <mxGeometry x="630" y="610" width="60" height="30" as="geometry" />
        </mxCell>
        <mxCell id="8lq25ZgbTpeLj6zq8VlV-3" value="" style="curved=1;endArrow=classic;html=1;rounded=0;entryX=1;entryY=0.5;entryDx=0;entryDy=0;dashed=1;" edge="1" parent="1" target="sW7oNko0xUZDrha6zsxx-5">
          <mxGeometry width="50" height="50" relative="1" as="geometry">
            <mxPoint x="530" y="520" as="sourcePoint" />
            <mxPoint x="580" y="470" as="targetPoint" />
            <Array as="points">
              <mxPoint x="580" y="520" />
              <mxPoint x="730" y="450" />
            </Array>
          </mxGeometry>
        </mxCell>
        <mxCell id="8lq25ZgbTpeLj6zq8VlV-4" value="&lt;font style=&quot;font-size: 16px;&quot;&gt;Interrput Inject&lt;/font&gt;" style="text;html=1;strokeColor=none;fillColor=none;align=center;verticalAlign=middle;whiteSpace=wrap;rounded=0;" vertex="1" parent="1">
          <mxGeometry x="610" y="390" width="120" height="60" as="geometry" />
        </mxCell>
        <mxCell id="8lq25ZgbTpeLj6zq8VlV-5" value="" style="endArrow=classic;html=1;rounded=0;" edge="1" parent="1" source="sW7oNko0xUZDrha6zsxx-5" target="sW7oNko0xUZDrha6zsxx-9">
          <mxGeometry width="50" height="50" relative="1" as="geometry">
            <mxPoint x="370" y="410" as="sourcePoint" />
            <mxPoint x="420" y="360" as="targetPoint" />
          </mxGeometry>
        </mxCell>
        <mxCell id="8lq25ZgbTpeLj6zq8VlV-6" value="&lt;font style=&quot;font-size: 16px;&quot;&gt;Memory Access&lt;/font&gt;" style="text;html=1;strokeColor=none;fillColor=none;align=center;verticalAlign=middle;whiteSpace=wrap;rounded=0;" vertex="1" parent="1">
          <mxGeometry x="390" y="440" width="110" height="30" as="geometry" />
        </mxCell>
        <mxCell id="8lq25ZgbTpeLj6zq8VlV-7" value="&lt;font style=&quot;font-size: 15px;&quot;&gt;&lt;b&gt;Hypocaust&lt;/b&gt;&lt;/font&gt;" style="text;html=1;strokeColor=none;fillColor=none;align=center;verticalAlign=middle;whiteSpace=wrap;rounded=0;" vertex="1" parent="1">
          <mxGeometry x="340" y="490" width="60" height="30" as="geometry" />
        </mxCell>
        <mxCell id="8lq25ZgbTpeLj6zq8VlV-8" value="&lt;font style=&quot;font-size: 15px;&quot;&gt;&lt;b&gt;Nested MMU&lt;/b&gt;&lt;/font&gt;" style="rounded=1;whiteSpace=wrap;html=1;dashed=1;" vertex="1" parent="1">
          <mxGeometry x="280" y="520" width="170" height="60" as="geometry" />
        </mxCell>
        <mxCell id="8lq25ZgbTpeLj6zq8VlV-9" value="" style="endArrow=classic;html=1;rounded=0;" edge="1" parent="1">
          <mxGeometry width="50" height="50" relative="1" as="geometry">
            <mxPoint x="450" y="550" as="sourcePoint" />
            <mxPoint x="690" y="550" as="targetPoint" />
          </mxGeometry>
        </mxCell>
        <mxCell id="8lq25ZgbTpeLj6zq8VlV-10" value="" style="rounded=1;whiteSpace=wrap;html=1;" vertex="1" parent="1">
          <mxGeometry x="690" y="510" width="190" height="90" as="geometry" />
        </mxCell>
        <mxCell id="8lq25ZgbTpeLj6zq8VlV-11" value="&lt;span style=&quot;font-size: 15px;&quot;&gt;&lt;b&gt;vPTW&lt;/b&gt;&lt;/span&gt;" style="rounded=1;whiteSpace=wrap;html=1;" vertex="1" parent="1">
          <mxGeometry x="700" y="525" width="70" height="35" as="geometry" />
        </mxCell>
        <mxCell id="8lq25ZgbTpeLj6zq8VlV-13" value="&lt;span style=&quot;font-size: 15px;&quot;&gt;&lt;b&gt;vTLB&lt;/b&gt;&lt;/span&gt;" style="rounded=1;whiteSpace=wrap;html=1;" vertex="1" parent="1">
          <mxGeometry x="790" y="525" width="70" height="35" as="geometry" />
        </mxCell>
        <mxCell id="8lq25ZgbTpeLj6zq8VlV-14" value="&lt;font style=&quot;font-size: 15px;&quot;&gt;&lt;b&gt;Nested MMU&lt;/b&gt;&lt;/font&gt;" style="text;html=1;strokeColor=none;fillColor=none;align=center;verticalAlign=middle;whiteSpace=wrap;rounded=0;" vertex="1" parent="1">
          <mxGeometry x="727" y="560" width="100" height="40" as="geometry" />
        </mxCell>
        <mxCell id="8lq25ZgbTpeLj6zq8VlV-16" value="" style="curved=1;endArrow=classic;html=1;rounded=0;exitX=0;exitY=0.5;exitDx=0;exitDy=0;entryX=0;entryY=0.5;entryDx=0;entryDy=0;dashed=1;" edge="1" parent="1" source="sW7oNko0xUZDrha6zsxx-5" target="sW7oNko0xUZDrha6zsxx-9">
          <mxGeometry width="50" height="50" relative="1" as="geometry">
            <mxPoint x="190" y="350" as="sourcePoint" />
            <mxPoint x="240" y="300" as="targetPoint" />
            <Array as="points">
              <mxPoint x="-10" y="470" />
            </Array>
          </mxGeometry>
        </mxCell>
        <mxCell id="8lq25ZgbTpeLj6zq8VlV-17" value="&lt;font style=&quot;font-size: 16px;&quot;&gt;HBI call&lt;/font&gt;" style="text;html=1;strokeColor=none;fillColor=none;align=center;verticalAlign=middle;whiteSpace=wrap;rounded=0;" vertex="1" parent="1">
          <mxGeometry x="90" y="430" width="60" height="30" as="geometry" />
        </mxCell>
        <mxCell id="8lq25ZgbTpeLj6zq8VlV-22" value="" style="curved=1;endArrow=classic;html=1;rounded=0;entryX=0;entryY=0.578;entryDx=0;entryDy=0;entryPerimeter=0;exitX=-0.016;exitY=0.445;exitDx=0;exitDy=0;exitPerimeter=0;dashed=1;" edge="1" parent="1" source="sW7oNko0xUZDrha6zsxx-9" target="sW7oNko0xUZDrha6zsxx-12">
          <mxGeometry width="50" height="50" relative="1" as="geometry">
            <mxPoint x="50" y="630" as="sourcePoint" />
            <mxPoint x="100" y="580" as="targetPoint" />
            <Array as="points">
              <mxPoint x="-30" y="600" />
            </Array>
          </mxGeometry>
        </mxCell>
        <mxCell id="8lq25ZgbTpeLj6zq8VlV-23" value="&lt;font style=&quot;font-size: 16px;&quot;&gt;SBI call&lt;/font&gt;" style="text;html=1;strokeColor=none;fillColor=none;align=center;verticalAlign=middle;whiteSpace=wrap;rounded=0;" vertex="1" parent="1">
          <mxGeometry x="50" y="610" width="60" height="30" as="geometry" />
        </mxCell>
      </root>
    </mxGraphModel>
  </diagram>
</mxfile>
